<svg width="539" height="256" viewBox="0 0 539 256" fill="none" xmlns="http://www.w3.org/2000/svg">
<path d="M31.5 172C33.433 172 35 170.433 35 168.5C35 166.567 33.433 165 31.5 165C29.567 165 28 166.567 28 168.5C28 170.433 29.567 172 31.5 172Z" stroke="#4A90E2" stroke-width="2" stroke-linecap="round" stroke-linejoin="round"/>
<path d="M70.5 172C72.433 172 74 170.433 74 168.5C74 166.567 72.433 165 70.5 165C68.567 165 67 166.567 67 168.5C67 170.433 68.567 172 70.5 172Z" stroke="#4A90E2" stroke-width="2" stroke-linecap="round" stroke-linejoin="round"/>
<path d="M3 100H17.1818L26.6836 158.022C27.0078 160.017 27.8959 161.809 29.1922 163.084C30.4886 164.36 32.1107 165.037 33.7745 164.998H68.2364C69.9002 165.037 71.5224 164.36 72.8187 163.084C74.1151 161.809 75.0031 160.017 75.3273 158.022L81 121.666H20.7273" stroke="#4A90E2" stroke-width="5" stroke-linecap="round" stroke-linejoin="round"/>
<path d="M140.192 147.664C140.192 151.76 139.2 155.248 137.216 158.128C135.232 160.944 132.384 163.12 128.672 164.656C125.024 166.192 120.704 166.96 115.712 166.96C113.152 166.96 110.688 166.832 108.32 166.576C106.016 166.32 103.904 165.968 101.984 165.52C100.064 165.008 98.368 164.4 96.896 163.696V155.44C99.2 156.464 102.048 157.392 105.44 158.224C108.896 159.056 112.448 159.472 116.096 159.472C119.488 159.472 122.336 159.024 124.64 158.128C126.944 157.232 128.672 155.952 129.824 154.288C130.976 152.624 131.552 150.672 131.552 148.432C131.552 146.192 131.072 144.304 130.112 142.768C129.152 141.232 127.488 139.824 125.12 138.544C122.816 137.2 119.584 135.792 115.424 134.32C112.48 133.232 109.888 132.08 107.648 130.864C105.472 129.584 103.648 128.144 102.176 126.544C100.704 124.944 99.584 123.12 98.816 121.072C98.112 119.024 97.76 116.656 97.76 113.968C97.76 110.32 98.688 107.216 100.544 104.656C102.4 102.032 104.96 100.016 108.224 98.608C111.552 97.2 115.36 96.496 119.648 96.496C123.424 96.496 126.88 96.848 130.016 97.552C133.152 98.256 136 99.184 138.56 100.336L135.872 107.728C133.504 106.704 130.912 105.84 128.096 105.136C125.344 104.432 122.464 104.08 119.456 104.08C116.576 104.08 114.176 104.496 112.256 105.328C110.336 106.16 108.896 107.344 107.936 108.88C106.976 110.352 106.496 112.08 106.496 114.064C106.496 116.368 106.976 118.288 107.936 119.824C108.896 121.36 110.464 122.736 112.64 123.952C114.816 125.168 117.76 126.48 121.472 127.888C125.504 129.36 128.896 130.96 131.648 132.688C134.464 134.352 136.576 136.368 137.984 138.736C139.456 141.104 140.192 144.08 140.192 147.664ZM161.296 114.448C161.296 115.664 161.232 116.912 161.104 118.192C161.04 119.472 160.944 120.624 160.816 121.648H161.392C162.48 119.856 163.856 118.384 165.52 117.232C167.184 116.08 169.04 115.216 171.088 114.64C173.136 114 175.248 113.68 177.424 113.68C181.584 113.68 185.04 114.352 187.792 115.696C190.608 116.976 192.72 118.992 194.128 121.744C195.536 124.496 196.24 128.08 196.24 132.496V166H187.888V133.072C187.888 128.912 186.96 125.808 185.104 123.76C183.248 121.712 180.336 120.688 176.368 120.688C172.528 120.688 169.52 121.424 167.344 122.896C165.168 124.304 163.6 126.416 162.64 129.232C161.744 131.984 161.296 135.376 161.296 139.408V166H152.848V93.04H161.296V114.448ZM256.927 140.176C256.927 144.464 256.351 148.272 255.199 151.6C254.111 154.864 252.511 157.648 250.399 159.952C248.351 162.256 245.823 164.016 242.815 165.232C239.871 166.384 236.575 166.96 232.927 166.96C229.535 166.96 226.399 166.384 223.519 165.232C220.639 164.016 218.143 162.256 216.031 159.952C213.919 157.648 212.255 154.864 211.039 151.6C209.887 148.272 209.311 144.464 209.311 140.176C209.311 134.48 210.271 129.68 212.191 125.776C214.111 121.808 216.863 118.8 220.447 116.752C224.031 114.64 228.287 113.584 233.215 113.584C237.887 113.584 241.983 114.64 245.503 116.752C249.087 118.8 251.871 121.808 253.855 125.776C255.903 129.68 256.927 134.48 256.927 140.176ZM218.047 140.176C218.047 144.208 218.559 147.728 219.583 150.736C220.671 153.68 222.335 155.952 224.575 157.552C226.815 159.152 229.663 159.952 233.119 159.952C236.575 159.952 239.423 159.152 241.663 157.552C243.903 155.952 245.535 153.68 246.559 150.736C247.647 147.728 248.191 144.208 248.191 140.176C248.191 136.08 247.647 132.592 246.559 129.712C245.471 126.832 243.807 124.624 241.567 123.088C239.391 121.488 236.543 120.688 233.023 120.688C227.775 120.688 223.967 122.416 221.599 125.872C219.231 129.328 218.047 134.096 218.047 140.176ZM294.796 113.584C301.132 113.584 306.22 115.792 310.06 120.208C313.964 124.624 315.916 131.28 315.916 140.176C315.916 146 315.02 150.928 313.228 154.96C311.5 158.928 309.036 161.936 305.836 163.984C302.7 165.968 298.988 166.96 294.7 166.96C292.076 166.96 289.74 166.608 287.692 165.904C285.644 165.2 283.884 164.304 282.412 163.216C281.004 162.064 279.788 160.816 278.764 159.472H278.188C278.316 160.56 278.444 161.936 278.572 163.6C278.7 165.264 278.764 166.704 278.764 167.92V189.04H270.316V114.544H277.228L278.38 121.552H278.764C279.788 120.08 281.004 118.736 282.412 117.52C283.884 116.304 285.612 115.344 287.596 114.64C289.644 113.936 292.044 113.584 294.796 113.584ZM293.26 120.688C289.804 120.688 287.02 121.36 284.908 122.704C282.796 123.984 281.26 125.936 280.3 128.56C279.34 131.184 278.828 134.512 278.764 138.544V140.176C278.764 144.4 279.212 147.984 280.108 150.928C281.004 153.872 282.508 156.112 284.62 157.648C286.796 159.184 289.74 159.952 293.452 159.952C296.588 159.952 299.148 159.088 301.132 157.36C303.18 155.632 304.684 153.296 305.644 150.352C306.668 147.344 307.18 143.92 307.18 140.08C307.18 134.192 306.028 129.488 303.724 125.968C301.484 122.448 297.996 120.688 293.26 120.688ZM368.835 166H330.531V97.456H368.835V105.04H339.171V126.448H367.107V133.936H339.171V158.416H368.835V166ZM402.211 113.68C408.483 113.68 413.123 115.056 416.131 117.808C419.139 120.56 420.643 124.944 420.643 130.96V166H414.499L412.867 158.704H412.483C411.011 160.56 409.475 162.128 407.875 163.408C406.339 164.624 404.547 165.52 402.499 166.096C400.515 166.672 398.083 166.96 395.203 166.96C392.131 166.96 389.347 166.416 386.851 165.328C384.419 164.24 382.499 162.576 381.091 160.336C379.683 158.032 378.979 155.152 378.979 151.696C378.979 146.576 380.995 142.64 385.027 139.888C389.059 137.072 395.267 135.536 403.651 135.28L412.387 134.992V131.92C412.387 127.632 411.459 124.656 409.603 122.992C407.747 121.328 405.123 120.496 401.731 120.496C399.043 120.496 396.483 120.912 394.051 121.744C391.619 122.512 389.347 123.408 387.234 124.432L384.643 118.096C386.883 116.88 389.539 115.856 392.611 115.024C395.683 114.128 398.883 113.68 402.211 113.68ZM404.707 141.136C398.307 141.392 393.859 142.416 391.363 144.208C388.931 146 387.715 148.528 387.715 151.792C387.715 154.672 388.579 156.784 390.307 158.128C392.099 159.472 394.371 160.144 397.123 160.144C401.475 160.144 405.091 158.96 407.971 156.592C410.851 154.16 412.291 150.448 412.291 145.456V140.848L404.707 141.136ZM470.039 151.792C470.039 155.12 469.207 157.904 467.543 160.144C465.879 162.384 463.511 164.08 460.439 165.232C457.367 166.384 453.719 166.96 449.495 166.96C445.911 166.96 442.807 166.672 440.183 166.096C437.623 165.52 435.351 164.72 433.367 163.696V156.016C435.415 157.04 437.879 158 440.759 158.896C443.703 159.728 446.679 160.144 449.687 160.144C453.975 160.144 457.079 159.472 458.999 158.128C460.919 156.72 461.879 154.864 461.879 152.56C461.879 151.28 461.527 150.128 460.823 149.104C460.119 148.08 458.839 147.056 456.983 146.032C455.191 145.008 452.599 143.856 449.207 142.576C445.879 141.296 443.031 140.016 440.663 138.736C438.295 137.456 436.471 135.92 435.191 134.128C433.911 132.336 433.271 130.032 433.271 127.216C433.271 122.864 435.031 119.504 438.551 117.136C442.135 114.768 446.807 113.584 452.567 113.584C455.703 113.584 458.615 113.904 461.303 114.544C464.055 115.12 466.615 115.952 468.983 117.04L466.103 123.76C464.695 123.12 463.191 122.576 461.591 122.128C460.055 121.616 458.487 121.232 456.887 120.976C455.287 120.656 453.655 120.496 451.991 120.496C448.535 120.496 445.879 121.072 444.023 122.224C442.231 123.312 441.335 124.816 441.335 126.736C441.335 128.144 441.751 129.36 442.583 130.384C443.415 131.344 444.791 132.304 446.711 133.264C448.695 134.16 451.319 135.248 454.583 136.528C457.847 137.744 460.631 138.992 462.935 140.272C465.239 141.552 466.999 143.12 468.215 144.976C469.431 146.768 470.039 149.04 470.039 151.792ZM502.345 113.584C506.761 113.584 510.537 114.544 513.673 116.464C516.873 118.384 519.305 121.104 520.969 124.624C522.697 128.08 523.561 132.144 523.561 136.816V141.904H488.329C488.457 147.728 489.929 152.176 492.745 155.248C495.625 158.256 499.625 159.76 504.745 159.76C508.009 159.76 510.889 159.472 513.385 158.896C515.945 158.256 518.569 157.36 521.257 156.208V163.6C518.633 164.752 516.041 165.584 513.481 166.096C510.921 166.672 507.881 166.96 504.361 166.96C499.497 166.96 495.177 165.968 491.401 163.984C487.689 162 484.777 159.056 482.665 155.152C480.617 151.184 479.593 146.352 479.593 140.656C479.593 135.024 480.521 130.192 482.377 126.16C484.297 122.128 486.953 119.024 490.345 116.848C493.801 114.672 497.801 113.584 502.345 113.584ZM502.249 120.496C498.217 120.496 495.017 121.808 492.649 124.432C490.345 126.992 488.969 130.576 488.521 135.184H514.729C514.729 132.24 514.281 129.68 513.385 127.504C512.489 125.328 511.113 123.632 509.257 122.416C507.465 121.136 505.129 120.496 502.249 120.496Z" fill="#4A90E2"/>
</svg>
